<?xml version="1.0" encoding="utf-8"?>
<!-- Generator: Adobe Illustrator 24.0.2, SVG Export Plug-In . SVG Version: 6.00 Build 0)  -->
<svg version="1.1" id="Layer_1" xmlns="http://www.w3.org/2000/svg" xmlns:xlink="http://www.w3.org/1999/xlink" x="0px" y="0px"
	 viewBox="0 0 512 512" style="enable-background:new 0 0 512 512;" xml:space="preserve">
<style type="text/css">
	.st0{fill:#F29E26;}
	.st1{fill:#F16724;}
	.st2{opacity:0.7;fill:#F16724;}
	.st3{opacity:0.5;}
	.st4{fill:none;stroke:#FFFFFF;stroke-width:10;stroke-linecap:round;stroke-miterlimit:10;}
</style>
<polygon class="st0" points="147.9083,3.9349 353.4416,3.9349 444.3111,173.1942 323.1674,507.4852 176.0417,507.4852 
	67.8664,181.6486 "/>
<polygon class="st1" points="167.0334,48.4231 336.2464,48.4231 411.0551,187.7769 311.3068,462.997 190.1915,462.997 
	101.131,194.737 "/>
<path class="st2" d="M336.2464,48.4231h-26.158c17.2783,35.8306,27.57,80.6695,27.57,129.3674
	c0,117.3498-59.6626,212.4744-133.2718,212.4744c-14.6574,0-28.7515-3.8212-41.9221-10.7813l27.7269,83.5134h121.1153
	l99.7483-275.2201L336.2464,48.4231z"/>
<polygon class="st0" points="147.9083,3.9349 167.0334,48.4231 336.2464,48.4231 353.4416,3.9349 "/>
<polygon class="st0" points="323.1674,507.4852 311.3068,462.997 190.1915,462.997 175.4973,507.4852 "/>
<g>
	<polygon class="st0" points="232.4,343.6898 276.3996,343.6898 277.2852,200.5147 328.9083,203.6158 325.0039,156.3772 
		273.9809,160.4196 282.0109,110.4854 232.4548,110.4854 239.2211,160.0689 188.3173,154.8631 183.2872,201.9911 234.9472,200.0715 
			"/>
	<g class="st3">
		<polygon class="st0" points="276.4733,190.3619 277.2852,200.5147 328.9083,203.6158 328.069,193.4809 		"/>
		<polygon class="st0" points="247.5092,160.8629 242.9592,110.4854 232.4548,110.4854 239.2211,160.0689 		"/>
		<polygon class="st0" points="241.5925,334.1646 244.1406,190.5462 192.4712,192.4479 196.403,155.6938 188.3173,154.8631 
			183.2872,201.9911 234.9472,200.0715 232.4,343.6898 276.3996,343.6898 276.4733,334.1646 		"/>
	</g>
</g>
<polyline class="st4" points="284.9371,13.3486 349.2422,13.3486 375.7603,67.6768 "/>
<line class="st4" x1="379.8122" y1="76.2048" x2="392.3921" y2="97.6191"/>
<polyline class="st4" points="167.0608,455.2439 180.3979,498.2 210.4508,498.2 "/>
<line class="st4" x1="218.7672" y1="498.2" x2="231.1448" y2="498.2"/>
</svg>
