<?xml version="1.0" encoding="iso-8859-1"?>
<!-- Generator: Adobe Illustrator 23.1.1, SVG Export Plug-In . SVG Version: 6.00 Build 0)  -->
<svg version="1.1" id="_x31_-outline-expand" xmlns="http://www.w3.org/2000/svg" xmlns:xlink="http://www.w3.org/1999/xlink"
	 x="0px" y="0px" viewBox="0 0 64 64" style="enable-background:new 0 0 64 64;" xml:space="preserve">
<path style="fill:#F2DAAE;" d="M24,29v-5H12v5c-4.971,0-9,4.029-9,9v23h30V38C33,33.029,28.971,29,24,29"/>
<path style="fill:#D36767;" d="M23,46c0,2.761-2.238,5-5,5c-2.762,0-5-2.239-5-5s2.238-5,5-5C20.762,41,23,43.239,23,46"/>
<rect x="9" y="17" style="fill:#4F5559;" width="18" height="7"/>
<rect x="53" y="15" style="fill:#42A5B2;" width="4" height="8"/>
<rect x="50" y="23" style="fill:#62C4C3;" width="10" height="31"/>
<rect x="52" y="54" style="fill:#4F5559;" width="6" height="7"/>
<path style="fill:#EFBC2E;" d="M31.493,18.813c2.115-0.541,3.779-2.205,4.32-4.32c0.051-0.201,0.323-0.201,0.373,0
	c0.541,2.115,2.205,3.779,4.321,4.32c0.201,0.051,0.201,0.323,0,0.374c-2.116,0.541-3.78,2.205-4.321,4.32
	c-0.05,0.201-0.322,0.201-0.373,0c-0.541-2.115-2.205-3.779-4.32-4.32C31.292,19.136,31.292,18.864,31.493,18.813"/>
<path style="fill:#3A4249;" d="M25.928,43.732l1.732-1l-2-3.464l-1.732,1l0.5,0.866l-1.807,1.043
	c-0.899-1.084-2.174-1.843-3.621-2.087V38h1v-2h-4v2h1v2.09c-1.447,0.244-2.722,1.003-3.621,2.087l-1.807-1.043l0.5-0.866l-1.732-1
	l-2,3.464l1.732,1l0.5-0.866l1.811,1.046C12.14,44.563,12,45.265,12,46s0.14,1.437,0.383,2.088l-1.811,1.046l-0.5-0.866l-1.732,1
	l2,3.464l1.732-1l-0.5-0.866l1.807-1.043c0.899,1.084,2.174,1.843,3.621,2.087V54h-1v2h4v-2h-1v-2.09
	c1.447-0.244,2.722-1.003,3.621-2.087l1.807,1.043l-0.5,0.866l1.732,1l2-3.464l-1.732-1l-0.5,0.866l-1.811-1.046
	C23.86,47.437,24,46.735,24,46s-0.14-1.437-0.383-2.088l1.811-1.046L25.928,43.732z M18,50c-2.206,0-4-1.794-4-4s1.794-4,4-4
	c2.206,0,4,1.794,4,4S20.206,50,18,50"/>
<path style="fill:#3A4249;" d="M25,28.05V25h2c0.553,0,1-0.448,1-1v-7c0-0.552-0.447-1-1-1H9c-0.553,0-1,0.448-1,1v7
	c0,0.552,0.447,1,1,1h2v3.05C5.954,28.553,2,32.824,2,38v23c0,0.552,0.447,1,1,1h30c0.553,0,1-0.448,1-1V38
	C34,32.824,30.046,28.553,25,28.05 M10,18h16v5H10V18z M32,60H4V38c0-4.411,3.589-8,8-8c0.553,0,1-0.448,1-1v-4h10v4
	c0,0.552,0.447,1,1,1c4.411,0,8,3.589,8,8V60z"/>
<path style="fill:#3A4249;" d="M59,60v-5h1c0.553,0,1-0.448,1-1V23c0-0.552-0.447-1-1-1h-2v-7c0-0.552-0.447-1-1-1h-1V2h-2v12h-1
	c-0.553,0-1,0.448-1,1v7h-2c-0.553,0-1,0.448-1,1v31c0,0.552,0.447,1,1,1h1v5h-3v2h14v-2H59z M54,16h2v6h-2V16z M51,24h8v4h-2v2h2v2
	h-2v2h2v2h-4v2h4v2h-2v2h2v2h-2v2h2v2h-4v2h4v3h-8V24z M53,55h4v5h-4V55z"/>
<path style="fill:#3A4249;" d="M20.828,11.366l-0.887-1.793c-0.649,0.321-1.291,0.674-1.907,1.048l1.039,1.709
	C19.64,11.986,20.229,11.662,20.828,11.366"/>
<path style="fill:#3A4249;" d="M17.408,13.443l-1.184-1.611c-0.585,0.429-1.155,0.887-1.696,1.361l1.318,1.504
	C16.345,14.261,16.87,13.839,17.408,13.443"/>
<path style="fill:#3A4249;" d="M24.556,9.915l-0.559-1.92c-0.692,0.201-1.386,0.437-2.062,0.7l0.725,1.864
	C23.282,10.317,23.919,10.101,24.556,9.915"/>
<path style="fill:#3A4249;" d="M51.122,17.162c-0.426-0.578-0.886-1.147-1.368-1.694l-1.5,1.324
	c0.444,0.502,0.867,1.026,1.257,1.556L51.122,17.162z"/>
<path style="fill:#3A4249;" d="M28.477,9.137l-0.215-1.988c-0.719,0.077-1.443,0.189-2.152,0.329l0.388,1.962
	C27.151,9.311,27.817,9.209,28.477,9.137"/>
<path style="fill:#3A4249;" d="M48.245,13.9c-0.521-0.498-1.072-0.98-1.64-1.433l-1.248,1.562c0.521,0.417,1.029,0.86,1.507,1.317
	L48.245,13.9z"/>
<path style="fill:#3A4249;" d="M44.85,11.183c-0.601-0.4-1.227-0.779-1.861-1.127l-0.961,1.754c0.584,0.32,1.16,0.669,1.713,1.037
	L44.85,11.183z"/>
<path style="fill:#3A4249;" d="M41.032,9.095c-0.66-0.29-1.344-0.554-2.03-0.786l-0.641,1.894c0.632,0.214,1.261,0.457,1.868,0.724
	L41.032,9.095z"/>
<path style="fill:#3A4249;" d="M36.908,7.702c-0.702-0.17-1.421-0.312-2.138-0.42L34.471,9.26c0.659,0.099,1.321,0.229,1.966,0.385
	L36.908,7.702z"/>
<path style="fill:#3A4249;" d="M31,9c0.497,0,0.991,0.016,1.481,0.047l0.125-1.996c-0.714-0.046-1.446-0.06-2.171-0.045l0.043,2
	L31,9z"/>
<path style="fill:#3A4249;" d="M42.264,52.059l0.98,1.743c0.621-0.349,1.232-0.728,1.819-1.128l-1.127-1.653
	C43.397,51.389,42.834,51.738,42.264,52.059"/>
<path style="fill:#3A4249;" d="M46.985,48.537c-0.47,0.455-0.966,0.895-1.473,1.307l1.264,1.551c0.55-0.448,1.088-0.926,1.6-1.42
	L46.985,48.537z"/>
<path style="fill:#3A4249;" d="M38.685,53.685l0.668,1.886c0.666-0.236,1.333-0.506,1.984-0.801l-0.828-1.821
	C39.911,53.221,39.297,53.469,38.685,53.685"/>
<path style="fill:#3A4249;" d="M34.883,54.674l0.332,1.972c0.7-0.118,1.404-0.269,2.094-0.449l-0.504-1.935
	C36.172,54.427,35.526,54.565,34.883,54.674"/>
<path style="fill:#3A4249;" d="M37,13h-2c0,2.757-2.243,5-5,5v2c2.757,0,5,2.243,5,5h2c0-2.757,2.243-5,5-5v-2
	C39.243,18,37,15.757,37,13 M36,21.413c-0.594-0.99-1.424-1.819-2.413-2.413c0.989-0.594,1.819-1.423,2.413-2.413
	c0.594,0.99,1.424,1.819,2.413,2.413C37.424,19.594,36.594,20.423,36,21.413"/>
</svg>
